# xmcd
#
# Track frame offsets: 
#        150
#        17798
#        31959
#        42668
#        54072
#        68908
#        90931
#        101562
#        112671
#        129803
#        146244
#        164193
#        176936
#        198053
#        213101
#        228214
#        238948
#        255154
#        266902
#        274864
#        291250
#        308716
#
# Disc length: 4282 seconds
#
# Revision: 0
# Processed by: cddbd v1.5.2PL0 Copyright (c) Steve Scherf et al.
# Submitted via: ExactAudioCopy v1.3
#
DISCID=3510b816
DTITLE=Jackie Washington - The World Of Jackie Washington
DYEAR=2019
DGENRE=Blues
TTITLE0=All Of Me
TTITLE1=Home
TTITLE2=I'm Happy Darling Dancing With You
TTITLE3=The Joint Is Jumpin'
TTITLE4=Ain't The Gravy Good
TTITLE5=I Dreamed Of You
TTITLE6=Sweet Jenny Lee
TTITLE7=Wham, Re-Bop-Boom-Bam
TTITLE8=Triscadecaphobia
TTITLE9=Rosetta
TTITLE10=I Only Know That I Love You ( That's All That Matters To Me)
TTITLE11=Them There Eyes
TTITLE12=Someone's Rockin' My Dreamboat
TTITLE13=Columbus Stockdale Blues
TTITLE14=The Sunny Side Of The Street
TTITLE15=Let It Snow, Let It Snow, Let It Snow
TTITLE16=Prisoner Of Love
TTITLE17=You Meet The Nicest People In Your Dreams
TTITLE18=Painting The Clouds With Sunshine
TTITLE19=The Little White Cloud That Cried
TTITLE20=Alone In The Dark
TTITLE21=Gotta Go!
EXTD=
EXTT0=
EXTT1=
EXTT2=
EXTT3=
EXTT4=
EXTT5=
EXTT6=
EXTT7=
EXTT8=
EXTT9=
EXTT10=
EXTT11=
EXTT12=
EXTT13=
EXTT14=
EXTT15=
EXTT16=
EXTT17=
EXTT18=
EXTT19=
EXTT20=
EXTT21=
PLAYORDER=
